<svg xmlns="http://www.w3.org/2000/svg" viewBox="0 0 1859 363" role="img" aria-label="NessGate logo">
  <path d="M 1039.0 128.0 L 1038.0 129.0 L 1030.0 131.0 L 1027.0 133.0 L 1025.0 133.0 L 1021.0 136.0 L 1018.0 137.0 L 1012.0 142.0 L 1011.0 142.0 L 1002.0 152.0 L 1001.0 155.0 L 998.0 159.0 L 998.0 161.0 L 995.0 168.0 L 995.0 172.0 L 994.0 173.0 L 994.0 190.0 L 995.0 191.0 L 995.0 194.0 L 996.0 195.0 L 998.0 203.0 L 1001.0 208.0 L 1012.0 219.0 L 1018.0 222.0 L 1020.0 224.0 L 1022.0 224.0 L 1033.0 230.0 L 1039.0 231.0 L 1040.0 232.0 L 1042.0 232.0 L 1049.0 235.0 L 1056.0 236.0 L 1057.0 237.0 L 1059.0 237.0 L 1060.0 238.0 L 1062.0 238.0 L 1063.0 239.0 L 1065.0 239.0 L 1072.0 242.0 L 1077.0 246.0 L 1078.0 250.0 L 1079.0 251.0 L 1079.0 254.0 L 1077.0 258.0 L 1072.0 262.0 L 1070.0 262.0 L 1069.0 263.0 L 1063.0 263.0 L 1062.0 264.0 L 1056.0 264.0 L 1055.0 263.0 L 1049.0 263.0 L 1048.0 262.0 L 1044.0 262.0 L 1043.0 261.0 L 1040.0 261.0 L 1039.0 260.0 L 1034.0 259.0 L 1016.0 250.0 L 1009.0 245.0 L 1007.0 245.0 L 1003.0 252.0 L 1000.0 255.0 L 996.0 264.0 L 992.0 269.0 L 991.0 272.0 L 989.0 274.0 L 986.0 280.0 L 987.0 280.0 L 994.0 286.0 L 999.0 288.0 L 1001.0 290.0 L 1009.0 294.0 L 1011.0 294.0 L 1016.0 297.0 L 1018.0 297.0 L 1025.0 300.0 L 1028.0 300.0 L 1029.0 301.0 L 1032.0 301.0 L 1033.0 302.0 L 1037.0 302.0 L 1038.0 303.0 L 1044.0 303.0 L 1045.0 304.0 L 1057.0 304.0 L 1058.0 305.0 L 1060.0 305.0 L 1061.0 304.0 L 1077.0 304.0 L 1078.0 303.0 L 1082.0 303.0 L 1083.0 302.0 L 1088.0 302.0 L 1089.0 301.0 L 1092.0 301.0 L 1095.0 299.0 L 1102.0 297.0 L 1112.0 291.0 L 1115.0 288.0 L 1116.0 288.0 L 1125.0 278.0 L 1131.0 266.0 L 1131.0 264.0 L 1132.0 263.0 L 1132.0 259.0 L 1133.0 258.0 L 1133.0 238.0 L 1132.0 237.0 L 1132.0 234.0 L 1131.0 233.0 L 1130.0 228.0 L 1127.0 224.0 L 1126.0 221.0 L 1116.0 211.0 L 1115.0 211.0 L 1110.0 207.0 L 1095.0 200.0 L 1093.0 200.0 L 1086.0 197.0 L 1083.0 197.0 L 1082.0 196.0 L 1080.0 196.0 L 1073.0 193.0 L 1070.0 193.0 L 1069.0 192.0 L 1063.0 191.0 L 1060.0 189.0 L 1055.0 188.0 L 1048.0 182.0 L 1047.0 180.0 L 1047.0 176.0 L 1053.0 169.0 L 1059.0 168.0 L 1060.0 167.0 L 1072.0 167.0 L 1073.0 168.0 L 1077.0 168.0 L 1078.0 169.0 L 1081.0 169.0 L 1082.0 170.0 L 1093.0 173.0 L 1098.0 176.0 L 1102.0 177.0 L 1104.0 179.0 L 1110.0 182.0 L 1113.0 176.0 L 1120.0 166.0 L 1121.0 163.0 L 1123.0 161.0 L 1124.0 158.0 L 1126.0 156.0 L 1131.0 146.0 L 1130.0 146.0 L 1127.0 143.0 L 1124.0 142.0 L 1122.0 140.0 L 1114.0 136.0 L 1112.0 136.0 L 1104.0 132.0 L 1101.0 132.0 L 1097.0 130.0 L 1094.0 130.0 L 1093.0 129.0 L 1090.0 129.0 L 1089.0 128.0 L 1085.0 128.0 L 1084.0 127.0 L 1078.0 127.0 L 1077.0 126.0 L 1049.0 126.0 L 1048.0 127.0 L 1043.0 127.0 L 1042.0 128.0 Z M 891.0 127.0 L 890.0 128.0 L 887.0 128.0 L 886.0 129.0 L 881.0 130.0 L 878.0 132.0 L 876.0 132.0 L 868.0 136.0 L 866.0 138.0 L 862.0 140.0 L 852.0 150.0 L 852.0 151.0 L 848.0 156.0 L 843.0 168.0 L 843.0 173.0 L 842.0 174.0 L 842.0 188.0 L 843.0 189.0 L 844.0 197.0 L 852.0 211.0 L 859.0 218.0 L 877.0 228.0 L 882.0 229.0 L 885.0 231.0 L 887.0 231.0 L 894.0 234.0 L 897.0 234.0 L 898.0 235.0 L 901.0 235.0 L 905.0 237.0 L 908.0 237.0 L 922.0 243.0 L 927.0 248.0 L 927.0 256.0 L 924.0 260.0 L 918.0 263.0 L 897.0 263.0 L 896.0 262.0 L 892.0 262.0 L 891.0 261.0 L 888.0 261.0 L 885.0 259.0 L 880.0 258.0 L 856.0 245.0 L 856.0 246.0 L 848.0 257.0 L 844.0 265.0 L 838.0 273.0 L 835.0 280.0 L 841.0 285.0 L 846.0 287.0 L 848.0 289.0 L 851.0 290.0 L 853.0 292.0 L 857.0 294.0 L 859.0 294.0 L 862.0 296.0 L 864.0 296.0 L 867.0 298.0 L 869.0 298.0 L 873.0 300.0 L 881.0 301.0 L 882.0 302.0 L 886.0 302.0 L 887.0 303.0 L 892.0 303.0 L 893.0 304.0 L 925.0 304.0 L 926.0 303.0 L 931.0 303.0 L 932.0 302.0 L 943.0 300.0 L 946.0 298.0 L 948.0 298.0 L 956.0 294.0 L 958.0 292.0 L 962.0 290.0 L 973.0 279.0 L 973.0 278.0 L 975.0 276.0 L 980.0 265.0 L 980.0 262.0 L 981.0 261.0 L 981.0 255.0 L 982.0 254.0 L 982.0 242.0 L 981.0 241.0 L 981.0 236.0 L 980.0 235.0 L 980.0 232.0 L 978.0 229.0 L 978.0 227.0 L 976.0 223.0 L 965.0 211.0 L 964.0 211.0 L 959.0 207.0 L 944.0 200.0 L 942.0 200.0 L 941.0 199.0 L 939.0 199.0 L 932.0 196.0 L 929.0 196.0 L 925.0 194.0 L 922.0 194.0 L 921.0 193.0 L 919.0 193.0 L 912.0 190.0 L 909.0 190.0 L 902.0 187.0 L 897.0 183.0 L 896.0 181.0 L 896.0 175.0 L 900.0 170.0 L 904.0 168.0 L 907.0 168.0 L 908.0 167.0 L 919.0 167.0 L 920.0 168.0 L 924.0 168.0 L 925.0 169.0 L 928.0 169.0 L 929.0 170.0 L 932.0 170.0 L 933.0 171.0 L 941.0 173.0 L 959.0 182.0 L 960.0 179.0 L 962.0 177.0 L 963.0 174.0 L 965.0 172.0 L 966.0 169.0 L 968.0 167.0 L 969.0 164.0 L 971.0 162.0 L 972.0 159.0 L 974.0 157.0 L 975.0 154.0 L 977.0 152.0 L 980.0 146.0 L 976.0 143.0 L 969.0 140.0 L 967.0 138.0 L 963.0 136.0 L 961.0 136.0 L 958.0 134.0 L 956.0 134.0 L 955.0 133.0 L 953.0 133.0 L 946.0 130.0 L 943.0 130.0 L 939.0 128.0 L 928.0 127.0 L 927.0 126.0 L 897.0 126.0 L 896.0 127.0 Z M 713.0 128.0 L 693.0 137.0 L 684.0 144.0 L 683.0 144.0 L 670.0 157.0 L 670.0 158.0 L 665.0 164.0 L 663.0 169.0 L 661.0 171.0 L 659.0 175.0 L 659.0 177.0 L 657.0 180.0 L 657.0 182.0 L 654.0 189.0 L 653.0 197.0 L 652.0 198.0 L 652.0 204.0 L 651.0 205.0 L 651.0 228.0 L 652.0 229.0 L 652.0 235.0 L 653.0 236.0 L 654.0 244.0 L 656.0 247.0 L 656.0 249.0 L 659.0 255.0 L 659.0 257.0 L 662.0 263.0 L 670.0 273.0 L 670.0 274.0 L 682.0 286.0 L 686.0 288.0 L 692.0 293.0 L 704.0 299.0 L 706.0 299.0 L 710.0 301.0 L 713.0 301.0 L 714.0 302.0 L 716.0 302.0 L 717.0 303.0 L 721.0 303.0 L 722.0 304.0 L 727.0 304.0 L 728.0 305.0 L 735.0 305.0 L 736.0 306.0 L 755.0 306.0 L 756.0 305.0 L 765.0 305.0 L 766.0 304.0 L 770.0 304.0 L 771.0 303.0 L 778.0 302.0 L 779.0 301.0 L 787.0 299.0 L 790.0 297.0 L 792.0 297.0 L 798.0 294.0 L 800.0 292.0 L 803.0 291.0 L 807.0 287.0 L 812.0 284.0 L 821.0 275.0 L 821.0 273.0 L 792.0 246.0 L 791.0 246.0 L 789.0 244.0 L 779.0 253.0 L 774.0 255.0 L 770.0 258.0 L 768.0 258.0 L 761.0 261.0 L 756.0 261.0 L 755.0 262.0 L 741.0 262.0 L 740.0 261.0 L 736.0 261.0 L 735.0 260.0 L 733.0 260.0 L 723.0 255.0 L 713.0 245.0 L 710.0 239.0 L 709.0 233.0 L 710.0 232.0 L 829.0 232.0 L 830.0 231.0 L 830.0 220.0 L 831.0 219.0 L 831.0 214.0 L 830.0 213.0 L 830.0 201.0 L 829.0 200.0 L 829.0 194.0 L 828.0 193.0 L 826.0 182.0 L 825.0 181.0 L 824.0 176.0 L 822.0 173.0 L 822.0 171.0 L 814.0 157.0 L 801.0 143.0 L 795.0 140.0 L 787.0 134.0 L 783.0 133.0 L 778.0 130.0 L 776.0 130.0 L 769.0 127.0 L 759.0 126.0 L 758.0 125.0 L 749.0 125.0 L 748.0 124.0 L 726.0 125.0 L 725.0 126.0 L 721.0 126.0 L 720.0 127.0 Z M 709.0 194.0 L 710.0 193.0 L 710.0 191.0 L 713.0 184.0 L 723.0 173.0 L 729.0 170.0 L 735.0 169.0 L 736.0 168.0 L 750.0 168.0 L 751.0 169.0 L 754.0 169.0 L 762.0 173.0 L 769.0 180.0 L 774.0 190.0 L 775.0 196.0 L 774.0 197.0 L 710.0 197.0 L 709.0 196.0 Z M 637.0 57.0 L 580.0 57.0 L 580.0 206.0 L 579.0 207.0 L 575.0 203.0 L 575.0 202.0 L 568.0 193.0 L 566.0 189.0 L 563.0 186.0 L 557.0 176.0 L 550.0 168.0 L 545.0 159.0 L 536.0 148.0 L 528.0 135.0 L 516.0 120.0 L 510.0 110.0 L 503.0 102.0 L 497.0 92.0 L 483.0 74.0 L 477.0 64.0 L 472.0 59.0 L 416.0 59.0 L 415.0 60.0 L 415.0 300.0 L 443.0 300.0 L 444.0 301.0 L 446.0 300.0 L 472.0 300.0 L 472.0 155.0 L 473.0 154.0 L 475.0 155.0 L 475.0 156.0 L 481.0 163.0 L 481.0 164.0 L 491.0 177.0 L 505.0 199.0 L 511.0 206.0 L 515.0 213.0 L 518.0 216.0 L 520.0 220.0 L 523.0 223.0 L 523.0 224.0 L 533.0 237.0 L 535.0 241.0 L 546.0 255.0 L 552.0 265.0 L 559.0 273.0 L 561.0 277.0 L 564.0 280.0 L 566.0 284.0 L 569.0 287.0 L 571.0 291.0 L 579.0 301.0 L 636.0 301.0 L 637.0 300.0 Z M 20.0 3.0 L 12.0 7.0 L 5.0 14.0 L 1.0 22.0 L 1.0 26.0 L 0.0 27.0 L 0.0 338.0 L 1.0 339.0 L 1.0 342.0 L 5.0 350.0 L 11.0 356.0 L 16.0 359.0 L 18.0 359.0 L 22.0 361.0 L 25.0 361.0 L 26.0 362.0 L 124.0 362.0 L 131.0 359.0 L 136.0 354.0 L 138.0 350.0 L 138.0 347.0 L 139.0 346.0 L 139.0 230.0 L 140.0 228.0 L 158.0 210.0 L 159.0 210.0 L 159.0 209.0 L 168.0 200.0 L 169.0 200.0 L 189.0 180.0 L 191.0 179.0 L 193.0 175.0 L 193.0 169.0 L 192.0 167.0 L 177.0 152.0 L 176.0 152.0 L 148.0 124.0 L 147.0 124.0 L 141.0 118.0 L 139.0 114.0 L 139.0 16.0 L 136.0 9.0 L 133.0 5.0 L 128.0 2.0 L 125.0 2.0 L 124.0 1.0 L 64.0 1.0 L 63.0 2.0 L 24.0 2.0 L 23.0 3.0 Z" fill="#0F2D4A" fill-rule="evenodd" clip-rule="evenodd"/>
  <path d="M 1741.0 128.0 L 1724.0 135.0 L 1719.0 139.0 L 1713.0 142.0 L 1709.0 146.0 L 1708.0 146.0 L 1696.0 159.0 L 1696.0 160.0 L 1692.0 165.0 L 1689.0 172.0 L 1686.0 176.0 L 1686.0 178.0 L 1684.0 181.0 L 1683.0 187.0 L 1681.0 191.0 L 1680.0 202.0 L 1679.0 203.0 L 1679.0 210.0 L 1678.0 211.0 L 1679.0 232.0 L 1680.0 233.0 L 1680.0 237.0 L 1681.0 238.0 L 1682.0 245.0 L 1685.0 251.0 L 1685.0 253.0 L 1692.0 267.0 L 1699.0 275.0 L 1699.0 276.0 L 1708.0 285.0 L 1709.0 285.0 L 1715.0 290.0 L 1721.0 293.0 L 1723.0 295.0 L 1727.0 297.0 L 1729.0 297.0 L 1732.0 299.0 L 1734.0 299.0 L 1741.0 302.0 L 1748.0 303.0 L 1749.0 304.0 L 1762.0 305.0 L 1763.0 306.0 L 1785.0 306.0 L 1786.0 305.0 L 1793.0 305.0 L 1794.0 304.0 L 1798.0 304.0 L 1799.0 303.0 L 1802.0 303.0 L 1806.0 301.0 L 1809.0 301.0 L 1810.0 300.0 L 1815.0 299.0 L 1827.0 293.0 L 1829.0 291.0 L 1833.0 289.0 L 1849.0 274.0 L 1849.0 273.0 L 1846.0 270.0 L 1845.0 270.0 L 1832.0 257.0 L 1831.0 257.0 L 1826.0 252.0 L 1825.0 252.0 L 1818.0 245.0 L 1816.0 245.0 L 1811.0 250.0 L 1795.0 259.0 L 1789.0 260.0 L 1788.0 261.0 L 1783.0 261.0 L 1782.0 262.0 L 1770.0 262.0 L 1769.0 261.0 L 1765.0 261.0 L 1764.0 260.0 L 1758.0 259.0 L 1754.0 257.0 L 1752.0 255.0 L 1749.0 254.0 L 1741.0 246.0 L 1737.0 237.0 L 1737.0 233.0 L 1738.0 232.0 L 1857.0 232.0 L 1857.0 227.0 L 1858.0 226.0 L 1858.0 205.0 L 1857.0 204.0 L 1857.0 195.0 L 1856.0 194.0 L 1856.0 190.0 L 1855.0 189.0 L 1855.0 186.0 L 1854.0 185.0 L 1854.0 182.0 L 1853.0 181.0 L 1851.0 173.0 L 1842.0 157.0 L 1829.0 143.0 L 1828.0 143.0 L 1820.0 137.0 L 1808.0 131.0 L 1806.0 131.0 L 1800.0 128.0 L 1793.0 127.0 L 1792.0 126.0 L 1787.0 126.0 L 1786.0 125.0 L 1776.0 125.0 L 1775.0 124.0 L 1755.0 125.0 L 1754.0 126.0 L 1749.0 126.0 L 1748.0 127.0 Z M 1736.0 196.0 L 1737.0 195.0 L 1738.0 189.0 L 1743.0 180.0 L 1748.0 175.0 L 1749.0 175.0 L 1754.0 171.0 L 1756.0 171.0 L 1763.0 168.0 L 1777.0 168.0 L 1778.0 169.0 L 1781.0 169.0 L 1784.0 171.0 L 1786.0 171.0 L 1797.0 181.0 L 1800.0 186.0 L 1800.0 188.0 L 1802.0 192.0 L 1802.0 196.0 L 1801.0 197.0 L 1737.0 197.0 Z M 1390.0 141.0 L 1392.0 145.0 L 1392.0 147.0 L 1396.0 154.0 L 1396.0 156.0 L 1399.0 161.0 L 1401.0 168.0 L 1407.0 180.0 L 1421.0 173.0 L 1427.0 172.0 L 1428.0 171.0 L 1434.0 170.0 L 1435.0 169.0 L 1438.0 169.0 L 1439.0 168.0 L 1445.0 168.0 L 1446.0 167.0 L 1466.0 167.0 L 1467.0 168.0 L 1471.0 168.0 L 1480.0 172.0 L 1487.0 179.0 L 1490.0 186.0 L 1491.0 197.0 L 1490.0 198.0 L 1487.0 198.0 L 1486.0 197.0 L 1482.0 197.0 L 1481.0 196.0 L 1477.0 196.0 L 1476.0 195.0 L 1471.0 195.0 L 1470.0 194.0 L 1464.0 194.0 L 1463.0 193.0 L 1444.0 193.0 L 1443.0 194.0 L 1435.0 194.0 L 1434.0 195.0 L 1429.0 195.0 L 1428.0 196.0 L 1424.0 196.0 L 1423.0 197.0 L 1417.0 198.0 L 1400.0 206.0 L 1396.0 210.0 L 1395.0 210.0 L 1390.0 215.0 L 1390.0 216.0 L 1385.0 222.0 L 1382.0 228.0 L 1381.0 234.0 L 1380.0 235.0 L 1380.0 238.0 L 1379.0 239.0 L 1379.0 262.0 L 1380.0 263.0 L 1380.0 266.0 L 1381.0 267.0 L 1383.0 275.0 L 1386.0 279.0 L 1387.0 282.0 L 1402.0 296.0 L 1410.0 300.0 L 1412.0 300.0 L 1415.0 302.0 L 1418.0 302.0 L 1422.0 304.0 L 1427.0 304.0 L 1428.0 305.0 L 1438.0 305.0 L 1439.0 306.0 L 1443.0 306.0 L 1444.0 305.0 L 1452.0 305.0 L 1453.0 304.0 L 1458.0 304.0 L 1459.0 303.0 L 1462.0 303.0 L 1463.0 302.0 L 1471.0 300.0 L 1477.0 297.0 L 1486.0 290.0 L 1487.0 290.0 L 1491.0 286.0 L 1492.0 287.0 L 1492.0 302.0 L 1547.0 302.0 L 1547.0 296.0 L 1548.0 295.0 L 1548.0 287.0 L 1547.0 286.0 L 1547.0 180.0 L 1546.0 179.0 L 1546.0 174.0 L 1545.0 173.0 L 1545.0 170.0 L 1544.0 169.0 L 1544.0 166.0 L 1543.0 165.0 L 1542.0 160.0 L 1533.0 146.0 L 1523.0 137.0 L 1507.0 128.0 L 1505.0 128.0 L 1498.0 125.0 L 1495.0 125.0 L 1494.0 124.0 L 1490.0 124.0 L 1489.0 123.0 L 1482.0 123.0 L 1481.0 122.0 L 1449.0 122.0 L 1448.0 123.0 L 1441.0 123.0 L 1440.0 124.0 L 1435.0 124.0 L 1434.0 125.0 L 1425.0 126.0 L 1424.0 127.0 L 1416.0 129.0 L 1413.0 131.0 L 1408.0 132.0 Z M 1434.0 245.0 L 1435.0 244.0 L 1435.0 241.0 L 1438.0 236.0 L 1444.0 231.0 L 1450.0 228.0 L 1454.0 228.0 L 1455.0 227.0 L 1475.0 227.0 L 1476.0 228.0 L 1481.0 228.0 L 1485.0 230.0 L 1488.0 230.0 L 1491.0 232.0 L 1491.0 247.0 L 1488.0 253.0 L 1477.0 263.0 L 1475.0 263.0 L 1468.0 266.0 L 1457.0 267.0 L 1456.0 266.0 L 1451.0 266.0 L 1450.0 265.0 L 1445.0 264.0 L 1437.0 257.0 L 1435.0 253.0 Z M 1580.0 77.0 L 1579.0 78.0 L 1579.0 127.0 L 1578.0 128.0 L 1556.0 128.0 L 1556.0 158.0 L 1555.0 159.0 L 1555.0 166.0 L 1556.0 167.0 L 1556.0 172.0 L 1578.0 172.0 L 1579.0 173.0 L 1579.0 258.0 L 1580.0 259.0 L 1580.0 265.0 L 1581.0 266.0 L 1581.0 269.0 L 1582.0 270.0 L 1584.0 278.0 L 1591.0 289.0 L 1597.0 295.0 L 1608.0 301.0 L 1610.0 301.0 L 1614.0 303.0 L 1622.0 304.0 L 1623.0 305.0 L 1647.0 305.0 L 1648.0 304.0 L 1653.0 304.0 L 1654.0 303.0 L 1657.0 303.0 L 1658.0 302.0 L 1661.0 302.0 L 1662.0 301.0 L 1667.0 300.0 L 1678.0 294.0 L 1677.0 293.0 L 1677.0 289.0 L 1676.0 288.0 L 1675.0 282.0 L 1674.0 281.0 L 1674.0 278.0 L 1673.0 277.0 L 1673.0 273.0 L 1672.0 272.0 L 1672.0 268.0 L 1671.0 267.0 L 1671.0 264.0 L 1670.0 263.0 L 1670.0 260.0 L 1669.0 259.0 L 1669.0 255.0 L 1667.0 255.0 L 1666.0 256.0 L 1664.0 256.0 L 1657.0 259.0 L 1646.0 259.0 L 1645.0 258.0 L 1643.0 258.0 L 1638.0 253.0 L 1636.0 249.0 L 1636.0 201.0 L 1635.0 200.0 L 1635.0 186.0 L 1636.0 185.0 L 1636.0 173.0 L 1637.0 172.0 L 1676.0 172.0 L 1676.0 128.0 L 1637.0 128.0 L 1636.0 127.0 L 1636.0 78.0 L 1635.0 77.0 Z M 1249.0 54.0 L 1248.0 55.0 L 1242.0 55.0 L 1241.0 56.0 L 1238.0 56.0 L 1237.0 57.0 L 1234.0 57.0 L 1233.0 58.0 L 1230.0 58.0 L 1229.0 59.0 L 1226.0 59.0 L 1225.0 60.0 L 1220.0 61.0 L 1217.0 63.0 L 1210.0 65.0 L 1206.0 68.0 L 1199.0 71.0 L 1197.0 73.0 L 1194.0 74.0 L 1187.0 80.0 L 1186.0 80.0 L 1181.0 85.0 L 1180.0 85.0 L 1165.0 101.0 L 1165.0 102.0 L 1158.0 111.0 L 1156.0 116.0 L 1154.0 118.0 L 1145.0 139.0 L 1145.0 142.0 L 1144.0 143.0 L 1144.0 146.0 L 1143.0 147.0 L 1143.0 150.0 L 1142.0 151.0 L 1141.0 163.0 L 1140.0 164.0 L 1140.0 175.0 L 1139.0 176.0 L 1139.0 183.0 L 1140.0 184.0 L 1140.0 198.0 L 1141.0 199.0 L 1141.0 204.0 L 1142.0 205.0 L 1142.0 209.0 L 1143.0 210.0 L 1143.0 214.0 L 1145.0 218.0 L 1145.0 221.0 L 1146.0 222.0 L 1148.0 230.0 L 1150.0 233.0 L 1150.0 235.0 L 1156.0 247.0 L 1158.0 249.0 L 1161.0 255.0 L 1168.0 263.0 L 1168.0 264.0 L 1183.0 279.0 L 1184.0 279.0 L 1187.0 282.0 L 1188.0 282.0 L 1196.0 288.0 L 1203.0 291.0 L 1205.0 293.0 L 1211.0 296.0 L 1213.0 296.0 L 1216.0 298.0 L 1218.0 298.0 L 1225.0 301.0 L 1228.0 301.0 L 1232.0 303.0 L 1235.0 303.0 L 1236.0 304.0 L 1248.0 305.0 L 1249.0 306.0 L 1281.0 306.0 L 1282.0 305.0 L 1289.0 305.0 L 1290.0 304.0 L 1299.0 303.0 L 1300.0 302.0 L 1307.0 301.0 L 1311.0 299.0 L 1314.0 299.0 L 1317.0 297.0 L 1319.0 297.0 L 1322.0 295.0 L 1329.0 293.0 L 1349.0 281.0 L 1352.0 278.0 L 1357.0 275.0 L 1365.0 267.0 L 1366.0 267.0 L 1367.0 265.0 L 1367.0 236.0 L 1366.0 235.0 L 1366.0 232.0 L 1367.0 231.0 L 1367.0 173.0 L 1366.0 172.0 L 1366.0 164.0 L 1265.0 164.0 L 1265.0 212.0 L 1267.0 212.0 L 1268.0 213.0 L 1309.0 213.0 L 1310.0 214.0 L 1310.0 242.0 L 1308.0 244.0 L 1298.0 249.0 L 1296.0 249.0 L 1295.0 250.0 L 1293.0 250.0 L 1286.0 253.0 L 1281.0 253.0 L 1280.0 254.0 L 1257.0 254.0 L 1256.0 253.0 L 1251.0 253.0 L 1250.0 252.0 L 1244.0 251.0 L 1230.0 244.0 L 1227.0 241.0 L 1226.0 241.0 L 1213.0 228.0 L 1213.0 227.0 L 1209.0 222.0 L 1204.0 212.0 L 1204.0 210.0 L 1201.0 203.0 L 1201.0 200.0 L 1200.0 199.0 L 1200.0 194.0 L 1199.0 193.0 L 1199.0 181.0 L 1198.0 180.0 L 1198.0 177.0 L 1199.0 176.0 L 1199.0 166.0 L 1200.0 165.0 L 1201.0 157.0 L 1202.0 156.0 L 1203.0 151.0 L 1205.0 148.0 L 1205.0 146.0 L 1214.0 131.0 L 1226.0 119.0 L 1240.0 111.0 L 1242.0 111.0 L 1245.0 109.0 L 1248.0 109.0 L 1249.0 108.0 L 1253.0 108.0 L 1254.0 107.0 L 1264.0 107.0 L 1265.0 106.0 L 1286.0 108.0 L 1287.0 109.0 L 1290.0 109.0 L 1291.0 110.0 L 1297.0 111.0 L 1311.0 118.0 L 1327.0 129.0 L 1335.0 121.0 L 1335.0 120.0 L 1348.0 105.0 L 1351.0 100.0 L 1361.0 88.0 L 1351.0 79.0 L 1345.0 76.0 L 1340.0 72.0 L 1326.0 65.0 L 1324.0 65.0 L 1321.0 63.0 L 1319.0 63.0 L 1313.0 60.0 L 1310.0 60.0 L 1309.0 59.0 L 1306.0 59.0 L 1305.0 58.0 L 1302.0 58.0 L 1301.0 57.0 L 1297.0 57.0 L 1296.0 56.0 L 1292.0 56.0 L 1291.0 55.0 L 1284.0 55.0 L 1283.0 54.0 L 1266.0 54.0 L 1265.0 53.0 L 1263.0 54.0 Z M 198.0 1.0 L 194.0 3.0 L 189.0 8.0 L 186.0 14.0 L 186.0 94.0 L 187.0 95.0 L 187.0 97.0 L 215.0 125.0 L 216.0 125.0 L 229.0 139.0 L 230.0 139.0 L 253.0 162.0 L 254.0 162.0 L 259.0 167.0 L 260.0 169.0 L 260.0 175.0 L 259.0 177.0 L 254.0 182.0 L 253.0 182.0 L 230.0 205.0 L 229.0 205.0 L 226.0 208.0 L 226.0 209.0 L 188.0 246.0 L 187.0 248.0 L 187.0 250.0 L 186.0 251.0 L 186.0 348.0 L 189.0 354.0 L 194.0 359.0 L 198.0 361.0 L 202.0 361.0 L 203.0 362.0 L 303.0 362.0 L 304.0 361.0 L 307.0 361.0 L 316.0 357.0 L 322.0 352.0 L 322.0 351.0 L 325.0 348.0 L 328.0 342.0 L 328.0 339.0 L 329.0 338.0 L 329.0 25.0 L 328.0 24.0 L 328.0 21.0 L 324.0 12.0 L 317.0 5.0 L 316.0 5.0 L 314.0 3.0 L 312.0 3.0 L 305.0 0.0 L 202.0 0.0 L 201.0 1.0 Z" fill="#00B39C" fill-rule="evenodd" clip-rule="evenodd"/>
</svg>